<svg id="content" xmlns="http://www.w3.org/2000/svg" viewBox="0 0 65 60"><title>accidentes</title><path d="M15.23,27.83a4.45,4.45,0,1,0-4.45-4.45A4.45,4.45,0,0,0,15.23,27.83Z" fill="#645650"/><path d="M56.35,36.57H21.62a8.24,8.24,0,0,1-5.85-2.42l-4.71-4.71a3.32,3.32,0,0,0-1.52-.87,3.2,3.2,0,0,0-1.7,0,3.32,3.32,0,0,0-1.52.87,3.36,3.36,0,0,0-1,2.38V42.37a3.48,3.48,0,0,0,3.48,3.48l7.89.12v6a2.43,2.43,0,0,0,4.85,0V46H44.92v6a2.42,2.42,0,1,0,4.84,0V46h6.59c1.85,0,3.31-1.76,3.31-4.73C59.67,38.71,58.2,36.57,56.35,36.57Z" fill="#645650"/><path d="M19.69,30.07A4.28,4.28,0,0,0,24,33.69H51.09a3.38,3.38,0,0,0,.58,0h0a3.08,3.08,0,0,0,2.45-2.33l.39-1.55.65-2.86a1.82,1.82,0,0,0,0-.43,2,2,0,0,0-1.5-1.89,1.8,1.8,0,0,0-.39,0A2,2,0,0,0,51.44,26L51,27.79a2.25,2.25,0,0,1-2.19,1.75h-4a5.25,5.25,0,0,1-2-.49l-1.07-.43,8.7-6.07a3.4,3.4,0,0,0,.45-.36,4.13,4.13,0,0,0,.67-.79,2.43,2.43,0,0,0,.2-2.15l-.7-1.9L50,14.62a1.85,1.85,0,0,0-.2-.38,2,2,0,0,0-2.31-.7,1.94,1.94,0,0,0-1,1,1.91,1.91,0,0,0,0,1.46l.67,1.67a2.24,2.24,0,0,1-.82,2.69l-1.39,1-1.52-13a.79.79,0,0,0-.79-.7H41.31a.79.79,0,0,0-.79.77l-.45,16.15L36.92,27a40.76,40.76,0,0,0-11-1.57h-2.1a4.14,4.14,0,0,0-4.12,4.68Z" fill="#645650"/><path d="M34,24.09V11.95H39L39,9H34V7.09a1.49,1.49,0,1,0-3,0V23.93q1.47.19,2.93.48A.94.94,0,0,0,34,24.09Z" fill="#645650"/><path d="M46.37,11.95A3.53,3.53,0,0,0,49.9,8.42a1.49,1.49,0,0,0-3,0,.54.54,0,0,1-.55.55H44.84l.34,3Z" fill="#645650"/></svg>