<svg id="content" xmlns="http://www.w3.org/2000/svg" viewBox="0 0 54.34 48.81"><title>Artboard 20</title><path d="M9.9,22.23a4.45,4.45,0,1,0-4.45-4.45A4.45,4.45,0,0,0,9.9,22.23Z" fill="#645650"/><path d="M51,31H16.29a8.24,8.24,0,0,1-5.85-2.42L5.73,23.84A3.32,3.32,0,0,0,4.21,23a3.2,3.2,0,0,0-1.7,0A3.32,3.32,0,0,0,1,23.84a3.36,3.36,0,0,0-1,2.38V36.78a3.48,3.48,0,0,0,3.48,3.48l7.89.12v6a2.43,2.43,0,0,0,4.85,0v-6H39.59v6a2.42,2.42,0,0,0,4.84,0v-6H51c1.85,0,3.31-1.76,3.31-4.73C54.34,33.12,52.87,31,51,31Z" fill="#645650"/><path d="M14.36,24.47a4.28,4.28,0,0,0,4.31,3.62H45.76a3.38,3.38,0,0,0,.58,0h0a3.08,3.08,0,0,0,2.45-2.33l.39-1.55.65-2.86a1.82,1.82,0,0,0,0-.43A2,2,0,0,0,48.41,19a1.8,1.8,0,0,0-.39,0,2,2,0,0,0-1.91,1.5l-.39,1.75a2.25,2.25,0,0,1-2.19,1.75h-4a5.25,5.25,0,0,1-2-.49L36.45,23,45.15,17a3.4,3.4,0,0,0,.45-.36,4.13,4.13,0,0,0,.67-.79,2.43,2.43,0,0,0,.2-2.15l-.7-1.9L44.68,9a1.85,1.85,0,0,0-.2-.38,2,2,0,0,0-2.31-.7,1.94,1.94,0,0,0-1,1,1.91,1.91,0,0,0,0,1.46l.67,1.67A2.24,2.24,0,0,1,41,14.8l-1.39,1L38,2.82a.79.79,0,0,0-.79-.7H36a.79.79,0,0,0-.79.77L34.74,19l-3.15,2.32a40.76,40.76,0,0,0-11-1.57h-2.1a4.14,4.14,0,0,0-4.12,4.68Z" fill="#645650"/><path d="M28.7,18.5V6.35h4.94l.06-3h-5V1.49a1.49,1.49,0,1,0-3,0V18.34q1.47.19,2.93.48A.94.94,0,0,0,28.7,18.5Z" fill="#645650"/><path d="M41,6.35a3.53,3.53,0,0,0,3.53-3.53,1.49,1.49,0,0,0-3,0,.54.54,0,0,1-.55.55H39.51l.34,3Z" fill="#645650"/></svg>