<svg id="content" xmlns="http://www.w3.org/2000/svg" viewBox="0 0 65 60"><title>cancelacion</title><path d="M48.15,7.26l-6.86,8.49L19.57,13.86a.91.91,0,0,0-.8.28l-2.53,3.13a1.1,1.1,0,0,0-.17.78.86.86,0,0,0,.51.65l16.88,6.73-6.58,8.15-5.8.49a1,1,0,0,0-.6.32l-4.33,5.36a.91.91,0,0,0-.09,1,.82.82,0,0,0,.88.48l9.57-1,1,9.57a.82.82,0,0,0,.65.76.86.86,0,0,0,.92-.29l4.28-5.29a.81.81,0,0,0,.18-.66l-.74-5.78,6.58-8.15L49.53,45.43a.91.91,0,0,0,.74.37.81.81,0,0,0,.73-.33l2.53-3.13a1.1,1.1,0,0,0,.17-.78L47.29,20.72l6.92-8.56a3.82,3.82,0,0,0-.58-5.41,3.9,3.9,0,0,0-5.48.52" fill="#5e544f"/><path d="M15.71,23.63,10.48,30.1A.9.9,0,1,1,9.09,29l5.23-6.47a.9.9,0,0,1,1.39,1.13" fill="#5e544f"/><path d="M16.94,29.22,11.71,35.7a.9.9,0,1,1-1.39-1.13l5.23-6.47a.9.9,0,1,1,1.39,1.13" fill="#5e544f"/><path d="M39.22,47.22,34,53.7a.9.9,0,1,1-1.39-1.13l5.23-6.47a.89.89,0,1,1,1.39,1.12" fill="#5e544f"/><path d="M45,47.25l-5.23,6.48a.9.9,0,1,1-1.39-1.13l5.23-6.47A.9.9,0,0,1,45,47.25" fill="#5e544f"/></svg>