<svg id="content" xmlns="http://www.w3.org/2000/svg" viewBox="0 0 65 60"><title>equipaje</title><path d="M4.77,48.37V22a5.88,5.88,0,0,1,5.88-5.88h7.72a6,6,0,0,0,.92,5.08A7.68,7.68,0,0,0,21,23l-2.11,2.12a2.51,2.51,0,0,0,0,3.55L32.22,41.94a2.52,2.52,0,0,0,3.55,0l4.5-4.52a2.51,2.51,0,0,0,0-3.55L28.65,22.27a7.62,7.62,0,0,0,1.69-3,5.65,5.65,0,0,0,0-3.14h9.13V11a1.75,1.75,0,0,0-1.74-1.74H27.32A1.75,1.75,0,0,0,25.57,11v5.16h2.08a3,3,0,0,1,.33,2.5,5.13,5.13,0,0,1-1.06,1.94,2.52,2.52,0,0,0-3.5,0l-.65.65h0a5.46,5.46,0,0,1-1.49-1.43A3.44,3.44,0,0,1,21,16.12h1.13V11a5.21,5.21,0,0,1,5.21-5.21H37.69A5.21,5.21,0,0,1,42.9,11v5.16H54.35A5.88,5.88,0,0,1,60.23,22V48.37a5.88,5.88,0,0,1-5.88,5.88H10.65A5.88,5.88,0,0,1,4.77,48.37Z" fill="#645650"/></svg>