<svg id="content" xmlns="http://www.w3.org/2000/svg" viewBox="0 0 65 60"><title>gastosmedicos</title><path d="M10.63,28.67l.9-2.12a1.54,1.54,0,0,1,1.47-.9,1.54,1.54,0,0,1,1.47.9l1.06,2.12H21.3a1.7,1.7,0,0,1,1.3.65l1.22,1.63L26.67,24a1.82,1.82,0,0,1,1.55-1h.08a1.77,1.77,0,0,1,1.47,1.14l3.5,10.5,3.26-8.79A1.56,1.56,0,0,1,38,24.84a1.73,1.73,0,0,1,1.55,1l1.87,4.31.81-.9a1.46,1.46,0,0,1,1.22-.57h6.11l1.06-1.55a1.67,1.67,0,0,1,2.77,0l1,1.55h2.71a25.66,25.66,0,0,0,1.57-7.57C59,13.32,53.36,6.48,45.87,6.27A13.34,13.34,0,0,0,32.54,19.89c0-7.63-6-13.83-13.41-13.62S6,13.32,6.36,21.1a25.62,25.62,0,0,0,1.57,7.57Z" fill="#645650"/><path d="M53.54,32a1.6,1.6,0,0,1-1.38-.73L52,31l-.16.24a1.6,1.6,0,0,1-1.38.73H44.09l-2,2.2a1.45,1.45,0,0,1-1.47.57,1.82,1.82,0,0,1-1.22-1l-1.3-2.93-3.5,9.2A1.75,1.75,0,0,1,31.55,40l-3.5-10.67-2.28,5.54a1.72,1.72,0,0,1-1.3,1.06,1.56,1.56,0,0,1-1.55-.65l-2.44-3.34H14.54a1.54,1.54,0,0,1-1.47-.9,1.54,1.54,0,0,1-1.47.9H9.36c5.83,11.55,18.4,19.39,22.11,21.55a2.13,2.13,0,0,0,2.07,0c3.7-2.1,16.22-9.94,22.07-21.46Z" fill="#645650"/></svg>