<?xml version="1.0" encoding="utf-8"?>
<!-- Generator: Adobe Illustrator 21.0.2, SVG Export Plug-In . SVG Version: 6.00 Build 0)  -->
<svg version="1.1" id="Layer_1" xmlns="http://www.w3.org/2000/svg" xmlns:xlink="http://www.w3.org/1999/xlink" x="0px" y="0px"
	 viewBox="0 0 74.6 78.1" style="enable-background:new 0 0 74.6 78.1;" xml:space="preserve">
<style type="text/css">
	.st0{opacity:0.7;fill:#00A6D2;enable-background:new    ;}
	.st1{opacity:0.7;enable-background:new    ;}
	.st2{fill:#00A6D2;}
</style>
<title>Asset 8</title>
<g id="Text">
	<path class="st0" d="M59.7,14.4c0-0.9-0.3-1.8-0.9-2.5c-0.5-0.7-1.4-1.1-2.2-1.1h-11V9c0-1.4-1.1-2.5-2.5-2.5c0,0,0,0,0,0H31.5
		C30.2,6.5,29,7.6,29,9l0,0v1.7H18c-1.2,0-2.2,0.7-2.7,1.7l0,0c-0.3,0.6-0.4,1.2-0.4,1.9v26.2c0,0.9,0.3,1.7,0.8,2.4
		c0.5,0.7,1.4,1.2,2.3,1.2h38.6c1.7,0,3.1-1.7,3.1-3.6L59.7,14.4z M31.5,8.7h11.6c0.1,0,0.3,0.1,0.3,0.3v1.7H31.3V9
		C31.3,8.9,31.4,8.7,31.5,8.7z M42.8,13.2V21c-0.2,0-0.3,0.2-0.4,0.3l-0.6,1v-9.2H42.8z M17.5,41.7c0,0-0.1-0.1-0.1-0.1
		c-0.1-0.2-0.2-0.4-0.2-0.7V39l2.4,2.7L17.5,41.7z M31.3,15.3C31.3,15.3,31.3,15.3,31.3,15.3v26.4h-9.8l-4.3-4.8V19.6l1,2.3
		c0,0,0,0.1,0.1,0.1c0.3,0.5,1,0.7,1.5,0.4l5.4-2.4c1.5-0.7,2.2-2.4,1.5-3.9c0,0,0-0.1,0-0.1c-0.3-0.7-1-1.2-1.7-1.5
		c-0.7-0.3-1.5-0.2-2.2,0.1l-5.4,2.4l-0.1,0.1l0,0v-3.2c0-0.5,0.2-0.8,0.3-0.8h13.8V15.3z M18.1,18.3l5.2-2.3l0,0
		c0.4-0.2,0.8-0.2,1.2-0.1c0.4,0.1,0.7,0.4,0.9,0.8c0.4,0.8,0.1,1.7-0.7,2.1c0,0-0.1,0-0.1,0l-5.2,2.4L18.1,18.3z M31.9,41.7V15.3
		c0,0,0,0,0,0v-2.1h0.8v2.5l0,0v26.1H31.9z M39.8,26.2c0,0.2,0.2,0.3,0.3,0.4l1.1,0.6c0,0,0,0,0,0.1v14.5h-8V14l0,0v-0.8h8v9.9
		c0,0.1,0,0.1,0.1,0.2l-1.4,2.4l0,0C39.8,25.8,39.8,26,39.8,26.2z M43.3,22.7l8.3,4.8l-1.8,3.1l-8.2-4.8L43.3,22.7z M41.8,41.7V27.6
		l1,0.6v13.6L41.8,41.7z M57.4,41c0,0.3-0.1,0.6-0.3,0.8H55l2.4-2.7L57.4,41z M53.1,41.7h-9.7V28.5l6.2,3.6c0.3,0.2,0.8,0.1,1-0.3
		l2.5-4.3c0.2-0.3,0.1-0.8-0.3-1l-9.4-5.4v-8h13.7c0.2,0.2,0.3,0.5,0.3,0.8v23L53.1,41.7z"/>
	<path class="st0" d="M22.3,31.3c-0.8,0.8-1.2,1.8-1.2,2.9c0,2.3,1.9,4.1,4.1,4.1s4.1-1.9,4.1-4.1c0-2.3-1.9-4.1-4.1-4.1
		C24.1,30.1,23.1,30.6,22.3,31.3z M28,34.2c0,1.5-1.2,2.7-2.7,2.7s-2.7-1.2-2.7-2.7c0-1.5,1.2-2.7,2.7-2.7c0.7,0,1.4,0.3,1.9,0.8
		C27.7,32.8,28,33.5,28,34.2z"/>
	<path class="st0" d="M23.6,33.4c-0.5,0.9-0.1,2.1,0.8,2.6c0.9,0.5,2.1,0.1,2.6-0.8c0.5-0.9,0.1-2.1-0.8-2.6
		c-0.7-0.4-1.6-0.2-2.2,0.3C23.8,33,23.6,33.2,23.6,33.4z M24.4,33.4c0.5-0.5,1.3-0.4,1.7,0.1c0.2,0.2,0.3,0.5,0.3,0.8
		c0,0.2,0,0.4-0.1,0.5c-0.3,0.6-1.1,0.8-1.7,0.4c-0.3-0.2-0.6-0.6-0.6-1C24.1,33.9,24.2,33.6,24.4,33.4L24.4,33.4z"/>
	<path class="st0" d="M19.7,20.1l3.4-1.4c0.2-0.1,0.3-0.3,0.2-0.4c-0.1-0.2-0.3-0.3-0.4-0.2c0,0,0,0,0,0l-3.4,1.4
		c-0.1,0-0.1,0.1-0.2,0.2c0,0.1,0,0.2,0,0.3C19.3,20.1,19.5,20.2,19.7,20.1z"/>
	<path class="st0" d="M20.1,18.7l2.6-1.1c0.2-0.1,0.3-0.3,0.2-0.4c-0.1-0.2-0.3-0.3-0.4-0.2c0,0,0,0-0.1,0L19.8,18
		c-0.1,0-0.1,0.1-0.2,0.2c-0.1,0.2,0,0.4,0.2,0.5C19.9,18.7,20,18.7,20.1,18.7L20.1,18.7z"/>
	<path class="st0" d="M43.2,24.5l6.9,3.9c0.2,0.1,0.4,0,0.5-0.1c0.1-0.2,0-0.4-0.1-0.5l-6.9-3.9c-0.2-0.1-0.4,0-0.5,0.1l0,0
		C42.9,24.2,43,24.4,43.2,24.5z"/>
	<path class="st0" d="M50.1,29.5c0.1-0.2,0-0.4-0.1-0.5L42.8,25c-0.2-0.1-0.4,0-0.5,0.1c0,0,0,0,0,0l0,0c-0.1,0.2,0,0.4,0.1,0.5
		l7.1,3.9C49.8,29.7,50,29.6,50.1,29.5z"/>
</g>
<g class="st1">
	<path class="st2" d="M10.7,49.3l-0.5,0.9C10,50,9.6,49.8,9,49.8c-0.5,0-1,0.2-1.3,0.7s-0.5,1-0.5,1.7s0.2,1.2,0.5,1.6
		c0.3,0.4,0.8,0.6,1.3,0.6c0.6,0,1.1-0.2,1.4-0.6l0.5,0.9c-0.5,0.5-1.2,0.7-2.1,0.7c-0.9,0-1.6-0.3-2.1-0.9
		c-0.5-0.6-0.8-1.4-0.8-2.4c0-0.9,0.3-1.7,0.8-2.4c0.6-0.6,1.3-1,2.2-1C9.7,48.8,10.3,49,10.7,49.3z"/>
	<path class="st2" d="M11.5,53c0-0.7,0.2-1.3,0.6-1.7c0.4-0.4,1-0.7,1.7-0.7c0.7,0,1.3,0.2,1.7,0.6c0.4,0.4,0.6,1,0.6,1.8
		c0,0.7-0.2,1.3-0.6,1.8c-0.4,0.4-1,0.7-1.7,0.7c-0.7,0-1.3-0.2-1.7-0.7S11.5,53.7,11.5,53z M12.6,53c0,1,0.4,1.5,1.1,1.5
		c0.3,0,0.6-0.1,0.8-0.4c0.2-0.3,0.3-0.7,0.3-1.1c0-1-0.4-1.5-1.1-1.5c-0.3,0-0.6,0.1-0.8,0.4C12.7,52.1,12.6,52.5,12.6,53z"/>
	<path class="st2" d="M17.8,55.1l-0.3,0.3h-0.6v-6.5l1.1-0.3v2.2c0.3-0.2,0.6-0.3,1-0.3c0.7,0,1.3,0.2,1.7,0.6
		c0.4,0.4,0.6,1,0.6,1.7c0,0.8-0.2,1.4-0.6,1.9c-0.4,0.5-1,0.7-1.8,0.7C18.5,55.4,18.1,55.3,17.8,55.1z M18,51.8v2.4
		c0.2,0.2,0.4,0.3,0.7,0.3c0.5,0,0.9-0.1,1.1-0.4c0.2-0.3,0.3-0.7,0.3-1.2c0-1-0.5-1.4-1.4-1.4C18.4,51.5,18.2,51.6,18,51.8z"/>
	<path class="st2" d="M26.6,53.3h-3.4c0,0.4,0.2,0.7,0.4,0.9c0.2,0.2,0.6,0.3,1,0.3c0.5,0,0.9-0.1,1.2-0.4l0.4,0.8
		c-0.4,0.3-1,0.5-1.8,0.5c-0.7,0-1.3-0.2-1.7-0.6c-0.4-0.4-0.6-1-0.6-1.8c0-0.7,0.2-1.3,0.7-1.8c0.5-0.5,1-0.7,1.7-0.7
		c0.7,0,1.3,0.2,1.7,0.6c0.4,0.4,0.6,0.9,0.6,1.5C26.7,52.9,26.6,53.1,26.6,53.3z M23.2,52.5h2.4c-0.1-0.7-0.5-1-1.2-1
		C23.8,51.5,23.4,51.8,23.2,52.5z"/>
	<path class="st2" d="M30.3,51.7c-0.2-0.1-0.4-0.2-0.7-0.2c-0.3,0-0.5,0.1-0.7,0.3c-0.2,0.2-0.3,0.5-0.3,0.8v2.7h-1.1v-4.7h1.1v0.4
		c0.3-0.3,0.7-0.5,1.2-0.5c0.4,0,0.7,0.1,0.9,0.2L30.3,51.7z"/>
	<path class="st2" d="M31.7,51.5h-0.6v-0.9h0.6v-1l1.1-0.4v1.4h1.3v0.9h-1.3v2c0,0.3,0.1,0.6,0.2,0.7c0.1,0.1,0.3,0.2,0.6,0.2
		s0.5-0.1,0.8-0.2v1c-0.3,0.1-0.6,0.1-1.1,0.1c-0.5,0-0.8-0.1-1.1-0.4c-0.3-0.3-0.4-0.6-0.4-1.1V51.5z"/>
	<path class="st2" d="M38.2,55.4V55c-0.2,0.1-0.4,0.2-0.7,0.3c-0.3,0.1-0.5,0.1-0.8,0.1c-1.1,0-1.7-0.6-1.7-1.7v-3h1.1v3
		c0,0.6,0.3,0.9,0.8,0.9c0.3,0,0.5-0.1,0.7-0.2c0.2-0.1,0.4-0.3,0.4-0.4v-3.2h1.1v4.7H38.2z"/>
	<path class="st2" d="M43.3,51.7c-0.2-0.1-0.4-0.2-0.7-0.2c-0.3,0-0.5,0.1-0.7,0.3c-0.2,0.2-0.3,0.5-0.3,0.8v2.7h-1.1v-4.7h1.1v0.4
		c0.3-0.3,0.7-0.5,1.2-0.5c0.4,0,0.7,0.1,0.9,0.2L43.3,51.7z"/>
	<path class="st2" d="M46.8,54.9c-0.1,0.2-0.3,0.3-0.5,0.4s-0.5,0.2-0.8,0.2c-0.5,0-0.9-0.1-1.2-0.4s-0.4-0.6-0.4-1.1
		c0-0.5,0.2-1,0.6-1.3c0.4-0.3,1-0.5,1.8-0.5c0.1,0,0.3,0,0.5,0.1c0-0.5-0.4-0.8-1.1-0.8c-0.4,0-0.8,0.1-1.1,0.2l-0.2-0.8
		c0.4-0.2,0.8-0.3,1.4-0.3c0.7,0,1.3,0.2,1.6,0.5c0.3,0.3,0.5,0.9,0.5,1.8v1c0,0.6,0.1,1,0.4,1.2c-0.1,0.2-0.2,0.3-0.3,0.3
		c-0.1,0-0.2,0.1-0.4,0.1c-0.2,0-0.3-0.1-0.4-0.2C47,55.1,46.9,55,46.8,54.9z M46.7,53.1c-0.2,0-0.3-0.1-0.4-0.1
		c-0.9,0-1.3,0.3-1.3,0.8c0,0.4,0.2,0.6,0.7,0.6c0.7,0,1-0.3,1-1V53.1z"/>
	<path class="st2" d="M52.8,55.2v2h-1.1v-6.5h1.1V51c0.3-0.3,0.6-0.4,1-0.4c1.5,0,2.3,0.8,2.3,2.5c0,0.8-0.2,1.4-0.6,1.8
		c-0.4,0.4-1,0.6-1.7,0.6C53.4,55.4,53.1,55.4,52.8,55.2z M52.8,51.8v2.5c0.2,0.2,0.4,0.2,0.7,0.2c0.5,0,0.9-0.1,1.1-0.4
		c0.2-0.2,0.3-0.6,0.3-1.1c0-0.6-0.1-0.9-0.3-1.2s-0.6-0.3-1.1-0.3C53.3,51.5,53,51.6,52.8,51.8z"/>
	<path class="st2" d="M56.8,53c0-0.7,0.2-1.3,0.6-1.7c0.4-0.4,1-0.7,1.7-0.7c0.7,0,1.3,0.2,1.7,0.6c0.4,0.4,0.6,1,0.6,1.8
		c0,0.7-0.2,1.3-0.6,1.8c-0.4,0.4-1,0.7-1.7,0.7c-0.7,0-1.3-0.2-1.7-0.7S56.8,53.7,56.8,53z M58,53c0,1,0.4,1.5,1.1,1.5
		c0.3,0,0.6-0.1,0.8-0.4c0.2-0.3,0.3-0.7,0.3-1.1c0-1-0.4-1.5-1.1-1.5c-0.3,0-0.6,0.1-0.8,0.4C58.1,52.1,58,52.5,58,53z"/>
	<path class="st2" d="M65.1,51.7c-0.2-0.1-0.4-0.2-0.7-0.2c-0.3,0-0.5,0.1-0.7,0.3c-0.2,0.2-0.3,0.5-0.3,0.8v2.7h-1.1v-4.7h1.1v0.4
		c0.3-0.3,0.7-0.5,1.2-0.5c0.4,0,0.7,0.1,0.9,0.2L65.1,51.7z"/>
	<path class="st2" d="M66.4,51.2c0-0.2,0.1-0.4,0.2-0.6c0.2-0.2,0.3-0.2,0.6-0.2c0.2,0,0.4,0.1,0.6,0.2c0.2,0.2,0.2,0.3,0.2,0.6
		c0,0.2-0.1,0.4-0.2,0.6C67.6,52,67.4,52,67.2,52c-0.2,0-0.4-0.1-0.6-0.2C66.5,51.6,66.4,51.5,66.4,51.2z M66.4,54.8
		c0-0.2,0.1-0.4,0.2-0.6c0.2-0.2,0.3-0.2,0.6-0.2c0.2,0,0.4,0.1,0.6,0.2c0.2,0.2,0.2,0.3,0.2,0.6c0,0.2-0.1,0.4-0.2,0.6
		c-0.2,0.2-0.3,0.2-0.6,0.2c-0.2,0-0.4-0.1-0.6-0.2C66.5,55.2,66.4,55,66.4,54.8z"/>
</g>
<g class="st1">
	<path class="st2" d="M9.6,72.2c-0.9-0.1-1.8-0.3-2.5-0.8l0.8-1.8c0.8,0.6,1.6,0.8,2.4,0.8c1.2,0,1.8-0.4,1.8-1.2
		c0-0.4-0.2-0.8-0.5-1.1c-0.3-0.4-0.9-0.7-1.8-1.2c-0.9-0.4-1.4-0.8-1.8-1.1s-0.5-0.6-0.7-1c-0.2-0.4-0.2-0.8-0.2-1.3
		c0-0.7,0.2-1.3,0.7-1.9c0.5-0.5,1.1-0.9,1.8-1.1v-1.4h1.8l0,1.3c1,0.1,1.7,0.3,2.2,0.7L12.9,63c-0.7-0.5-1.5-0.8-2.3-0.8
		c-0.5,0-0.8,0.1-1.1,0.4c-0.3,0.2-0.4,0.6-0.4,0.9c0,0.6,0.7,1.3,2.2,2c0.8,0.4,1.3,0.7,1.7,1c0.3,0.3,0.6,0.7,0.8,1.1
		c0.2,0.4,0.3,0.9,0.3,1.4c0,0.7-0.2,1.4-0.7,1.9c-0.5,0.5-1.1,0.9-2,1.1v1.8H9.6V72.2z"/>
	<path class="st2" d="M16.6,71.2l0.8-1.7c0.8,0.6,1.6,1,2.2,1c1.3,0,2-0.8,2-2.4c0-0.8-0.2-1.3-0.5-1.7c-0.3-0.4-0.8-0.5-1.5-0.5
		c-0.6,0-1.3,0.3-1.9,0.9L17,66.3v-5.6h6.2v1.7h-4.3v2c0.3-0.2,0.8-0.2,1.2-0.2c1.1,0,2,0.3,2.6,1c0.6,0.6,0.9,1.6,0.9,2.7
		c0,2.9-1.4,4.3-4.1,4.3C18.5,72.2,17.5,71.9,16.6,71.2z"/>
	<path class="st2" d="M25.4,66.1c0-1.5,0.4-2.9,1.2-3.9c0.8-1.1,1.8-1.6,3.1-1.6c2.7,0,4,1.9,4,5.8c0,1.8-0.4,3.2-1.1,4.3
		s-1.7,1.6-3.1,1.6c-1.4,0-2.5-0.5-3.1-1.5C25.8,69.7,25.4,68.2,25.4,66.1z M27.6,66.2c0,1.5,0.2,2.6,0.5,3.3
		c0.3,0.7,0.8,1.1,1.5,1.1c0.8,0,1.3-0.3,1.6-1c0.3-0.6,0.5-1.8,0.5-3.4c0-1.5-0.2-2.6-0.5-3.2c-0.3-0.6-0.8-0.9-1.5-0.9
		C28.2,62.2,27.6,63.5,27.6,66.2z"/>
	<path class="st2" d="M35.7,71.1c0-0.4,0.1-0.7,0.4-1s0.6-0.4,1-0.4c0.4,0,0.7,0.1,1,0.4c0.3,0.3,0.4,0.6,0.4,1c0,0.4-0.1,0.7-0.4,1
		c-0.3,0.3-0.6,0.4-1,0.4c-0.4,0-0.7-0.1-1-0.4C35.8,71.8,35.7,71.4,35.7,71.1z"/>
	<path class="st2" d="M40.9,66.1c0-1.5,0.4-2.9,1.2-3.9c0.8-1.1,1.8-1.6,3.1-1.6c2.7,0,4,1.9,4,5.8c0,1.8-0.4,3.2-1.1,4.3
		s-1.7,1.6-3.1,1.6c-1.4,0-2.5-0.5-3.1-1.5C41.2,69.7,40.9,68.2,40.9,66.1z M43,66.2c0,1.5,0.2,2.6,0.5,3.3c0.3,0.7,0.8,1.1,1.5,1.1
		c0.8,0,1.3-0.3,1.6-1c0.3-0.6,0.5-1.8,0.5-3.4c0-1.5-0.2-2.6-0.5-3.2c-0.3-0.6-0.8-0.9-1.5-0.9C43.7,62.2,43,63.5,43,66.2z"/>
	<path class="st2" d="M50.3,66.1c0-1.5,0.4-2.9,1.2-3.9c0.8-1.1,1.8-1.6,3.1-1.6c2.7,0,4,1.9,4,5.8c0,1.8-0.4,3.2-1.1,4.3
		s-1.7,1.6-3.1,1.6c-1.4,0-2.5-0.5-3.1-1.5C50.7,69.7,50.3,68.2,50.3,66.1z M52.5,66.2c0,1.5,0.2,2.6,0.5,3.3
		c0.3,0.7,0.8,1.1,1.5,1.1c0.8,0,1.3-0.3,1.6-1c0.3-0.6,0.5-1.8,0.5-3.4c0-1.5-0.2-2.6-0.5-3.2s-0.8-0.9-1.5-0.9
		C53.2,62.2,52.5,63.5,52.5,66.2z"/>
	<path class="st2" d="M59.8,66.1c0-1.5,0.4-2.9,1.2-3.9c0.8-1.1,1.8-1.6,3.1-1.6c2.7,0,4,1.9,4,5.8c0,1.8-0.4,3.2-1.1,4.3
		s-1.7,1.6-3.1,1.6c-1.4,0-2.5-0.5-3.1-1.5C60.2,69.7,59.8,68.2,59.8,66.1z M62,66.2c0,1.5,0.2,2.6,0.5,3.3c0.3,0.7,0.8,1.1,1.5,1.1
		c0.8,0,1.3-0.3,1.6-1c0.3-0.6,0.5-1.8,0.5-3.4c0-1.5-0.2-2.6-0.5-3.2c-0.3-0.6-0.8-0.9-1.5-0.9C62.7,62.2,62,63.5,62,66.2z"/>
</g>
</svg>
