<svg id="content" xmlns="http://www.w3.org/2000/svg" viewBox="0 0 54.34 48.81"><title>incapacidad</title><polygon points="7.7 34.15 7.7 14.66 2.92 14.66 2.9 47.4 7.7 47.4 7.7 38.67 47.23 38.67 47.23 47.4 52.05 47.4 52.05 34.15 7.7 34.15" fill="#5e544f"/><path d="M39,4.42A3.42,3.42,0,1,1,35.58,1,3.42,3.42,0,0,1,39,4.42" fill="#5e544f"/><path d="M10.83,20.61A3.41,3.41,0,1,0,9.45,16a3.43,3.43,0,0,0,1.38,4.62Z" fill="#5e544f"/><rect x="9.13" y="22.01" width="8.83" height="10.7" fill="#5e544f"/><path d="M52.05,25.16A3,3,0,0,0,48.73,22H19.57v10.7H52.05V25.16Z" fill="#5e544f"/><path d="M42.64,20.47h3.3l-2.4-8.35A5,5,0,0,0,39,8.68H32.46A4.7,4.7,0,0,0,28,12.12L26,17.3H20.81c-2.45,0-2.46,3.16,0,3.16h6.4a1.63,1.63,0,0,0,1.53-1.24l2-5.18H31.8l-1.65,6.43H41.08L39.61,14h1.24Z" fill="#5e544f"/></svg>