<svg id="content" xmlns="http://www.w3.org/2000/svg" viewBox="0 0 65 60"><title>pasaporte</title><path d="M28.15,24h3.13v-3H28.56A14.66,14.66,0,0,0,28.15,24Z" fill="#645650"/><path d="M28.56,28.19h2.73V25.27H28.15A14.67,14.67,0,0,0,28.56,28.19Z" fill="#645650"/><path d="M28.94,19.83h2.35v-3A4.79,4.79,0,0,0,28.94,19.83Z" fill="#645650"/><path d="M31.29,32.43v-3H28.94A4.79,4.79,0,0,0,31.29,32.43Z" fill="#645650"/><path d="M38.18,19.83A8,8,0,0,0,35,17.36a9.29,9.29,0,0,1,1.22,2.48Z" fill="#645650"/><path d="M28.84,17.36a8,8,0,0,0-3.2,2.48h2A9.3,9.3,0,0,1,28.84,17.36Z" fill="#645650"/><path d="M26.91,25.27H24a7.85,7.85,0,0,0,.81,2.92h2.45A16,16,0,0,1,26.91,25.27Z" fill="#645650"/><path d="M25.61,29.43A8,8,0,0,0,28.87,32a9.22,9.22,0,0,1-1.25-2.52Z" fill="#645650"/><path d="M27.28,21.07H24.85A7.85,7.85,0,0,0,24,24h2.89A16.1,16.1,0,0,1,27.28,21.07Z" fill="#645650"/><path d="M36.53,28.19H39a7.85,7.85,0,0,0,.81-2.92H36.9A15.92,15.92,0,0,1,36.53,28.19Z" fill="#645650"/><path d="M34.94,32a8,8,0,0,0,3.26-2.52h-2A9.21,9.21,0,0,1,34.94,32Z" fill="#645650"/><path d="M32.53,16.84v3h2.35A4.79,4.79,0,0,0,32.53,16.84Z" fill="#645650"/><path d="M15.86,53.32H46.66a2.48,2.48,0,0,0,2.48-2.48V9.15a2.48,2.48,0,0,0-2.48-2.48H15.86ZM41.5,45H22.31V43.14H41.5Zm-9.6-10.77a9.6,9.6,0,1,1,9.6-9.6A9.6,9.6,0,0,1,31.91,34.23Z" fill="#645650"/><path d="M36.9,24h2.89a7.84,7.84,0,0,0-.83-3H36.53A16,16,0,0,1,36.9,24Z" fill="#645650"/><path d="M35.25,21.07H32.53v3h3.14A14.72,14.72,0,0,0,35.25,21.07Z" fill="#645650"/><path d="M32.53,32.43a4.79,4.79,0,0,0,2.35-3H32.53Z" fill="#645650"/><path d="M35.25,28.19a14.66,14.66,0,0,0,.41-2.92H32.53v2.92Z" fill="#645650"/></svg>